<svg width="369" height="145" viewBox="0 0 369 145" fill="none" xmlns="http://www.w3.org/2000/svg">
<g clip-path="url(#clip0_1_172)">
<path fill-rule="evenodd" clip-rule="evenodd" d="M373 49C373 70.2518 357.933 87.9847 337.899 92.0996C337.966 93.0577 338 94.0249 338 95C338 116.778 321.02 134.591 299.576 135.92C297.661 141.227 294.682 146.026 290.896 150.058C290.965 151.03 291 152.011 291 153C291 175.644 272.644 194 250 194C233.033 194 218.473 183.693 212.239 168.999C212.159 169 212.08 169 212 169C208.037 169 204.205 168.438 200.579 167.388C193.506 179.705 180.222 188 165 188C157.786 188 151.007 186.137 145.118 182.865C141.014 185.673 136.374 187.753 131.382 188.922C124.545 202.042 110.819 211 95 211C76.0403 211 60.0863 198.131 55.397 180.651C49.8645 183.433 43.6152 185 37 185C14.3563 185 -4 166.644 -4 144C-4 121.356 14.3563 103 37 103C55.9597 103 71.9137 115.869 76.603 133.349C79.4357 131.925 82.4563 130.819 85.6178 130.078C92.4552 116.958 106.181 108 122 108C129.214 108 135.993 109.863 141.882 113.135C148.463 108.633 156.424 106 165 106C168.963 106 172.795 106.562 176.421 107.612C183.494 95.2952 196.778 87 212 87C219.479 87 226.49 89.0023 232.526 92.5002C239.324 85.937 248.385 81.7021 258.424 81.0796C262.841 68.8394 272.919 59.305 285.497 55.6356C285.17 53.4714 285 51.2555 285 49C285 24.6995 304.699 5 329 5C353.301 5 373 24.6995 373 49Z" fill="white" fill-opacity="0.5"/>
<path fill-rule="evenodd" clip-rule="evenodd" d="M396 55C396 70.3071 387.612 83.655 375.181 90.6975C377.632 95.9545 379 101.817 379 108C379 129.552 362.372 147.219 341.245 148.873C337.573 167.75 320.951 182 301 182C299.222 182 297.471 181.887 295.752 181.667C288.269 191.587 276.383 198 263 198C252.515 198 242.95 194.064 235.7 187.59C232.289 188.509 228.702 189 225 189C220.412 189 215.999 188.246 211.88 186.856C204.887 199.465 191.44 208 176 208C169.502 208 163.357 206.488 157.897 203.797C154.728 204.583 151.413 205 148 205C144.039 205 140.21 204.438 136.587 203.39C129.201 210.575 119.117 215 108 215C90.1535 215 74.9702 203.598 69.3379 187.68C63.8199 190.444 57.5916 192 51 192C28.3563 192 10 173.644 10 151C10 128.356 28.3563 110 51 110C68.8465 110 84.0298 121.402 89.6621 137.32C95.1801 134.556 101.408 133 108 133C111.961 133 115.79 133.562 119.413 134.61C126.799 127.425 136.883 123 148 123C154.498 123 160.643 124.512 166.103 127.203C169.272 126.417 172.587 126 176 126C180.588 126 185.001 126.754 189.12 128.144C196.113 115.535 209.56 107 225 107C235.485 107 245.05 110.936 252.3 117.41C255.711 116.491 259.298 116 263 116C264.778 116 266.529 116.113 268.248 116.333C275.12 107.222 285.706 101.07 297.755 100.127C300.077 88.1914 307.575 78.106 317.819 72.3025C315.368 67.0455 314 61.1826 314 55C314 32.3563 332.356 14 355 14C377.644 14 396 32.3563 396 55Z" fill="white"/>
</g>
<defs>
<clipPath id="clip0_1_172">
<rect width="369" height="145" rx="72.5" fill="white"/>
</clipPath>
</defs>
</svg>
