<svg width="369" height="145" viewBox="0 0 369 145" fill="none" xmlns="http://www.w3.org/2000/svg">
<g clip-path="url(#clip0_2_255)">
<path d="M138 96L140.227 102.773L147 105L140.227 107.227L138 114L135.773 107.227L129 105L135.773 102.773L138 96Z" fill="white"/>
<path d="M51 100L52.9799 106.02L59 108L52.9799 109.98L51 116L49.0201 109.98L43 108L49.0201 106.02L51 100Z" fill="white"/>
<path d="M125 55L125.495 56.505L127 57L125.495 57.495L125 59L124.505 57.495L123 57L124.505 56.505L125 55Z" fill="white"/>
<path d="M148 29L148.99 32.0101L152 33L148.99 33.9899L148 37L147.01 33.9899L144 33L147.01 32.0101L148 29Z" fill="white"/>
<path d="M93 81L94.2374 84.7626L98 86L94.2374 87.2374L93 91L91.7626 87.2374L88 86L91.7626 84.7626L93 81Z" fill="white"/>
<path d="M54 54L54.7425 56.2575L57 57L54.7425 57.7425L54 60L53.2575 57.7425L51 57L53.2575 56.2575L54 54Z" fill="white"/>
<path d="M101 23L102.98 29.0201L109 31L102.98 32.9799L101 39L99.0201 32.9799L93 31L99.0201 29.0201L101 23Z" fill="white"/>
<path d="M182 75L182.742 77.2575L185 78L182.742 78.7425L182 81L181.258 78.7425L179 78L181.258 77.2575L182 75Z" fill="white"/>
</g>
<defs>
<clipPath id="clip0_2_255">
<rect width="369" height="145" rx="72.5" fill="white"/>
</clipPath>
</defs>
</svg>
